<svg xmlns="http://www.w3.org/2000/svg" xmlns:xlink="http://www.w3.org/1999/xlink" width="218" height="160" viewBox="0 0 218 160">
    <defs>
        <path id="tc7sgn3h3a" d="M0 0.259L217.673 0.259 217.673 16.804 0 16.804z"/>
    </defs>
    <g fill="none" fill-rule="evenodd">
        <g transform="translate(0 142.466)">
            <mask id="jdym9jnbvb" fill="#fff">
                <use xlink:href="#tc7sgn3h3a"/>
            </mask>
            <path fill="#ACB2C3" d="M195.925 16.804H1.968c-.91 0-1.702-.624-1.914-1.51-.212-.885.212-1.802 1.024-2.212L25.939.472c.276-.141.58-.213.89-.213h188.876c.874 0 1.645.578 1.89 1.418.243.838-.094 1.74-.832 2.209l-19.78 12.61c-.315.2-.683.308-1.058.308" mask="url(#jdym9jnbvb)"/>
        </g>
        <path fill="#ACB2C3" d="M10.2 155.335L195.351 155.335 208.956 146.66 27.299 146.66z"/>
        <path fill="#FFF" d="M17.943 151.729L49.702 151.729 49.702 72.636 17.943 72.636zM17.943 72.636L27.474 66.883 57.824 66.883 49.701 72.636z"/>
        <path fill="#FFF" d="M49.701 151.729L49.701 72.636 57.824 66.883 57.824 146.308zM84.131 151.728L115.89 151.728 115.89 38.797 84.131 38.797zM84.131 38.797L93.662 33.041 124.011 33.041 115.891 38.797z"/>
        <path fill="#FFF" d="M115.89 151.729L115.89 38.797 124.01 33.041 124.01 146.308zM150.317 151.729L182.076 151.729 182.076 8.123 150.317 8.123zM182.076 151.729L182.076 8.122 190.2 2.371 190.2 146.308z"/>
        <path fill="#ACB2C3" d="M55.856 145.254l-4.187 2.794V73.654l4.187-2.965v74.565zm-35.944 4.507h27.82V74.603h-27.82v75.158zm8.11-80.911h23.617l-1.886 1.338-.68.481H25.011l3.01-1.82zm31.704-2.451c-.007-.026-.01-.051-.019-.077-.003-.012-.003-.023-.007-.036-.044-.136-.106-.261-.175-.382l-.05-.084c-.084-.129-.18-.248-.288-.354l-.056-.047c-.123-.11-.255-.208-.401-.283h-.002v-.001c-.14-.073-.292-.122-.448-.16-.033-.008-.065-.018-.098-.024-.117-.022-.236-.035-.358-.035h-30.35c-.359 0-.71.097-1.018.28l-9.53 5.754c-.018.011-.032.025-.05.037-.032.02-.062.044-.093.066-.065.05-.129.1-.188.156-.029.027-.056.056-.085.085-.054.059-.104.12-.151.184-.024.032-.048.063-.07.098-.045.071-.085.147-.12.223-.015.03-.032.06-.045.09-.045.109-.08.221-.105.337-.005.024-.006.05-.01.075-.017.095-.028.192-.03.29 0 .015-.004.03-.004.045v79.092c0 1.087.881 1.968 1.968 1.968H49.7c.118 0 .235-.015.351-.036l.106-.023c.082-.02.163-.045.242-.076.033-.012.065-.022.096-.036.103-.045.202-.097.297-.16l8.123-5.42c.548-.364.877-.979.877-1.638V66.882c0-.007-.003-.015-.003-.023-.002-.153-.025-.308-.064-.46zM122.043 145.254l-4.186 2.794V39.815l4.186-2.966v108.405zM115.318 36.79l-.055.04H91.198l3.011-1.821h23.62l-2.51 1.78zM86.1 149.76h27.824V40.765H86.1v108.997zm39.808-117.225c-.005-.015-.007-.03-.011-.044-.004-.015-.005-.031-.01-.047-.045-.138-.109-.265-.179-.387l-.045-.074c-.084-.13-.18-.251-.29-.357-.018-.018-.04-.034-.06-.051-.117-.104-.243-.197-.383-.271l-.015-.01c-.002-.002-.005-.002-.008-.003-.14-.073-.292-.122-.448-.159-.03-.007-.06-.017-.09-.022-.118-.022-.237-.036-.359-.036H93.662c-.359 0-.71.098-1.018.282l-9.53 5.755c-.02.011-.036.027-.054.04-.028.017-.054.037-.08.056-.072.053-.14.107-.202.167l-.074.074c-.06.063-.113.129-.163.198-.02.029-.042.056-.06.085-.05.078-.093.16-.132.242-.012.025-.026.049-.037.074-.045.11-.08.224-.105.341l-.01.065c-.017.1-.027.2-.03.3 0 .015-.004.03-.004.044v112.931c0 1.087.881 1.968 1.969 1.968h31.758c.118 0 .235-.015.353-.036l.105-.023c.082-.02.164-.046.244-.076.03-.012.063-.021.093-.035.103-.046.203-.098.298-.16l8.12-5.421c.547-.366.875-.979.875-1.638V33.041l-.001-.003c0-.167-.025-.336-.07-.503zM188.233 145.254l-4.19 2.794V9.141l.765-.542 3.425-2.422v139.077zM182.37 5.504l-.92.65h-24.06l3.007-1.816h23.616l-1.643 1.166zM152.285 149.76h27.824V10.09h-27.824v139.67zM192.168 2.369c0-.168-.025-.338-.07-.506l-.01-.04-.01-.048c-.045-.14-.11-.27-.181-.393l-.04-.065c-.085-.133-.183-.255-.295-.363-.017-.017-.036-.03-.053-.045-.12-.107-.25-.202-.393-.277l-.01-.009-.005-.001c-.14-.072-.292-.122-.448-.16-.032-.007-.063-.017-.095-.023-.118-.021-.236-.036-.358-.036h-30.35c-.36 0-.71.098-1.016.282l-9.532 5.752c-.018.01-.032.023-.05.034-.032.022-.064.047-.096.072-.066.047-.13.098-.188.154-.027.026-.054.052-.08.08-.058.062-.11.127-.16.195-.02.028-.042.055-.06.084-.053.081-.098.166-.139.254-.008.02-.02.038-.028.06-.047.112-.084.23-.109.35-.002.011-.002.022-.005.033-.02.11-.031.222-.034.334 0 .013-.003.023-.003.036v143.605c0 1.087.88 1.968 1.968 1.968h31.758c.118 0 .236-.015.352-.036l.105-.023c.084-.02.165-.046.244-.076.032-.012.063-.021.093-.035.103-.046.204-.098.3-.16l8.124-5.421c.546-.364.874-.979.874-1.638V2.372v-.003z"/>
    </g>
</svg>
