<svg xmlns="http://www.w3.org/2000/svg" width="31" height="42" viewBox="0 0 31 42">
    <g fill="#727891" fill-rule="evenodd">
        <path d="M13.375 8c3.522 0 6.347 2.825 6.347 6.347 0 2.39-1.348 4.476-3.304 5.562V21.3c.435-.26.956-.39 1.521-.39 1.304 0 2.39.78 2.826 1.911.478-.348 1.085-.565 1.738-.565 1.303 0 2.39.781 2.824 1.91.479-.346 1.087-.563 1.739-.563 1.695 0 3.043 1.389 3.043 3.042l-.044 7.736c0 2.306-.911 3.146-2.562 4.796-1.61 1.651-3.826 2.564-6.13 2.564h-3.867c-2.912 0-5.692-1.304-7.561-3.564l-6.216-6.185c-.564-.652-.826-1.521-.696-2.39.088-.827.609-1.609 1.305-2.087 1.215-.824 2.824-.694 3.867.349l2.129 2.085V19.91c-1.956-1.086-3.304-3.173-3.304-5.562C7.03 10.869 9.855 8 13.375 8zm-4.822 6.3c0-2.65 2.173-4.824 4.825-4.824s4.825 2.172 4.825 4.824c0 1.521-.697 2.87-1.782 3.739V14.3c0-.824-.306-1.564-.915-2.128-.564-.565-1.347-.87-2.128-.87-1.652 0-3.041 1.349-3.041 3.043v3.738C9.29 17.169 8.554 15.82 8.554 14.3h-.001zM26.5 38.088c-1.348 1.348-3.174 2.085-5.086 2.085H17.55c-2.521 0-4.825-1.085-6.433-2.997L4.9 30.991c-.303-.348-.434-.783-.348-1.219.045-.433.304-.824.652-1.085.262-.174.565-.262.869-.262.39 0 .783.174 1.087.435l2.52 2.476c.392.348.914.48 1.392.263.478-.219.782-.654.782-1.174V14.3c0-.824.696-1.521 1.52-1.521.39 0 .784.173 1.087.434.304.306.435.652.435 1.087v11.128c0 .433.348.737.738.737s.739-.348.739-.737v-1.521c0-.827.696-1.522 1.52-1.522.827 0 1.521.695 1.521 1.522v2.868c0 .434.35.738.74.738.434 0 .738-.348.738-.738v-1.52c0-.826.696-1.522 1.52-1.522.826 0 1.522.696 1.522 1.522v2.868c0 .434.347.738.738.738.39 0 .74-.348.74-.738v-1.478c0-.825.698-1.522 1.522-1.522.826 0 1.52.697 1.52 1.522v7.691c.132 1.912-.606 2.405-1.954 3.752zM3.984 11.82c.39 0 .739.304.739.739 0 .434-.35.782-.739.738H1.072c-.39 0-.739-.348-.739-.738 0-.391.304-.739.739-.739h2.912zm20.73 0c.39 0 .738.348.738.739 0 .39-.304.738-.739.738h-2.91c-.391 0-.739-.304-.739-.738 0-.391.303-.739.739-.739h2.91zm-2.957-8.125c.306.304.306.781 0 1.085l-2.041 2.043c-.13.13-.35.217-.52.217-.219 0-.393-.087-.567-.217-.304-.304-.304-.783 0-1.087l2.043-2.041c.304-.306.783-.306 1.085 0zm-16.686 0l1.997 2.041c.304.304.304.783 0 1.087-.13.13-.348.217-.521.217-.174 0-.391-.087-.52-.217L3.984 4.78c-.304-.304-.304-.781 0-1.085.303-.306.783-.306 1.087 0zM12.893 0c.39 0 .739.304.739.739v2.956c0 .389-.304.737-.739.737-.434 0-.782-.348-.738-.783V.74c0-.391.304-.739.738-.739z"/>
    </g>
</svg>
