<svg xmlns="http://www.w3.org/2000/svg" width="67" height="13" viewBox="0 0 67 13">
    <path fill="#52576A" fill-rule="evenodd" d="M67 11.346v.636c0 .562-.458 1.018-1.023 1.018s-1.023-.456-1.023-1.018v-.636c0-2.877-2.352-5.217-5.242-5.217h-22.1c-.27 0-.53-.107-.722-.298L33.5 2.458 30.11 5.83c-.191.19-.452.298-.723.298H7.288c-2.89 0-5.242 2.34-5.242 5.217v.636c0 .562-.458 1.018-1.023 1.018S0 12.544 0 11.982v-.636c0-4 3.27-7.253 7.288-7.253h21.675L32.777.298c.4-.397 1.047-.397 1.446 0l3.814 3.795h21.675C63.73 4.093 67 7.347 67 11.346"/>
</svg>
