<svg xmlns="http://www.w3.org/2000/svg" width="66" height="80" viewBox="0 0 66 80">
    <g fill="none" fill-rule="evenodd">
        <g>
            <g>
                <g>
                    <g>
                        <g>
                            <path fill="#727891" d="M61.67 73.672c0 1.602-1.481 2.907-3.301 2.907H6.567c-1.82 0-3.301-1.305-3.301-2.907v-51.13H15.43c3.62 0 6.566-2.769 6.566-6.172V3.81H58.37c1.82 0 3.3 1.304 3.3 2.907v66.955zM18.731 6.118V16.37c0 1.603-1.48 2.907-3.301 2.907H5.574L18.732 6.118zM58.37.545H20.365c-.011 0-.021.002-.032.003-.098.001-.196.01-.293.029l-.03.008c-.084.019-.165.045-.245.077-.028.01-.054.023-.082.035-.063.03-.124.063-.183.1-.023.015-.047.028-.07.044-.077.054-.152.113-.22.182L.478 19.755c-.068.068-.127.142-.18.22-.018.023-.031.048-.046.072-.037.058-.069.118-.098.18-.013.028-.026.055-.037.085-.03.077-.056.156-.074.238-.003.013-.008.024-.01.036-.02.096-.028.194-.03.291 0 .011-.003.021-.003.033v52.762c0 3.403 2.946 6.172 6.567 6.172H58.37c3.62 0 6.566-2.769 6.566-6.172V6.717c0-3.403-2.946-6.172-6.566-6.172z" transform="translate(-162 -359) translate(0 -11) translate(45 87) translate(0 57) translate(117 226)"/>
                            <path fill="#ACB2C3" d="M38.07 63.078c.902 0 1.632.732 1.632 1.633 0 .902-.73 1.633-1.632 1.633H16.162c-.901 0-1.632-.731-1.632-1.633 0-.901.73-1.633 1.632-1.633zm10.047-9.241c.902 0 1.633.73 1.633 1.633 0 .9-.731 1.632-1.633 1.632H16.162c-.902 0-1.632-.731-1.632-1.632 0-.902.73-1.633 1.632-1.633z" transform="translate(-162 -359) translate(0 -11) translate(45 87) translate(0 57) translate(117 226)"/>
                            <path fill="#5303A8" d="M23.236 35.468l5.023 2.73-5.022 2.727c-.23.126-.311.405-.179.624l1.436 2.382c.063.106.167.183.291.214.124.032.255.016.366-.044l5.06-2.75v5.535c0 .253.217.457.483.457h2.892c.266 0 .481-.204.481-.457V41.35l5.061 2.75c.111.06.241.076.367.044.123-.031.228-.109.29-.214l1.438-2.382c.132-.219.051-.498-.179-.624l-5.024-2.728 5.023-2.73c.23-.124.31-.403.178-.623l-1.436-2.381c-.063-.106-.167-.183-.29-.215-.126-.032-.256-.015-.367.044l-5.06 2.75v-5.534c0-.253-.216-.457-.482-.457h-2.892c-.266 0-.482.204-.482.457v5.534l-5.06-2.75c-.113-.059-.243-.076-.367-.044-.123.032-.228.11-.291.215l-1.437 2.381c-.132.22-.052.499.179.624" transform="translate(-162 -359) translate(0 -11) translate(45 87) translate(0 57) translate(117 226)"/>
                        </g>
                    </g>
                </g>
            </g>
        </g>
    </g>
</svg>
