<svg xmlns="http://www.w3.org/2000/svg" width="36" height="36" viewBox="0 0 36 36">
    <path fill="#727891" fill-rule="evenodd" d="M13.97 14.826c-.184-.555.406-1.152.954-.965.01.001.02.008.031.01.245.076.49.165.737.249.517.173 1.032.347 1.549.524.72.245 1.441.488 2.163.732l2.56.867 2.746.93 2.708.915c.827.28 1.655.559 2.482.84.674.226 1.353.458 2.027.685.46.154.917.311 1.378.466.167.054.34.112.507.17.261.089.468.275.542.549.076.27-.001.565-.198.764l-.564.57-2.438 2.469-.977.988.175.178 3.146 3.184 1.984 2.007c.298.302.298.809 0 1.11l-.434.44-1.89 1.912-1.191 1.206c-.298.3-.8.3-1.097 0l-.722-.73c-1.05-1.06-2.1-2.122-3.149-3.185l-1.436-1.453-.015.016-2.439 2.468-1.529 1.547c-.196.196-.488.274-.754.201-.275-.075-.456-.286-.544-.55-.002-.01-.008-.02-.01-.03l-.246-.746c-.17-.523-.343-1.045-.517-1.568-.243-.73-.483-1.46-.724-2.19l-.857-2.59c-.306-.927-.613-1.853-.918-2.78-.303-.913-.603-1.827-.905-2.74l-.83-2.512-.677-2.052-.46-1.394c-.054-.17-.11-.343-.167-.512zm1.97 1.033l.296.898c.243.73.483 1.459.723 2.19.286.863.573 1.726.857 2.59.306.926.613 1.853.918 2.78.304.913.604 1.826.905 2.74l.83 2.511c.224.683.453 1.37.677 2.052l.22.664 2.115-2.14 1.53-1.548c.297-.302.798-.302 1.095 0l.722.73 3.15 3.184 1.435 1.453 1.776-1.797.643-.651-.174-.176-3.145-3.184-1.984-2.008-.002-.002c-.305-.286-.284-.817-.003-1.105l.563-.57 2.44-2.468.642-.651-1.09-.369c-.72-.245-1.442-.489-2.164-.732-.853-.29-1.706-.579-2.56-.867l-2.745-.93-2.708-.916c-.827-.279-1.655-.558-2.482-.84-.675-.226-1.353-.458-2.028-.685l-.452-.153zM14.915 0c8.014 0 14.571 6.333 14.87 14.442.044.478-.34.911-.813.911-.472.045-.9-.345-.9-.823-.256-7.157-6.042-12.795-13.157-12.795-7.286 0-13.2 5.942-13.157 13.315 0 7.243 5.615 13.099 12.772 13.315.47.045.814.434.814.912-.044.434-.429.823-.901.823C6.343 29.841 0 23.248 0 15.05 0 6.723 6.687 0 14.915 0zm0 4.337c5.1 0 9.472 3.643 10.373 8.72.086.433-.214.91-.686.997-.429.087-.901-.216-.986-.695-.772-4.207-4.458-7.287-8.7-7.287-4.885 0-8.871 4.034-8.871 8.978 0 4.381 3.085 8.11 7.37 8.805.472.086.772.52.687.998-.086.434-.429.737-.857.737h-.13C8.017 24.723 4.33 20.3 4.33 15.05c0-5.897 4.756-10.713 10.585-10.713zm.002 4.51c1.8 0 3.514.826 4.67 2.213.344.347.258.868-.084 1.215-.344.347-.901.26-1.2-.086-.816-.998-2.058-1.563-3.344-1.563h-.001l-.213.005c-2.273.11-4.087 1.944-4.194 4.125l-.005.206c0 1.432.643 2.689 1.758 3.556.385.304.47.826.17 1.215-.171.217-.428.347-.686.347-.17 0-.343-.042-.514-.173-1.542-1.17-2.442-2.949-2.442-4.9 0-3.384 2.7-6.16 6.085-6.16z"/>
</svg>
