<?xml version="1.0" encoding="utf-8"?>
<!-- Generator: Adobe Illustrator 24.0.2, SVG Export Plug-In . SVG Version: 6.00 Build 0)  -->
<svg version="1.1" id="Слой_1" xmlns="http://www.w3.org/2000/svg" xmlns:xlink="http://www.w3.org/1999/xlink" x="0px" y="0px"
	 viewBox="0 0 30 30" style="enable-background:new 0 0 30 30;" xml:space="preserve">
<style type="text/css">
	.st0{fill-rule:evenodd;clip-rule:evenodd;fill:#0D1E42;}
</style>
<g>
	<path class="st0" d="M26,7.1L22.8,4l2.1-2.1L28.1,5L26,7.1z M8.9,24.3L8.9,24.3L5.8,21l-0.1,0.1l16-16.1l3.2,3.2L8.9,24.3z
		 M7.5,25.6l-4.4,1.9l-0.7-0.7l1.9-4.4l0.3-0.3l3.2,3.2C7.8,25.3,7.5,25.6,7.5,25.6z M25.3,0.1C25.1,0,25,0,24.8,0
		c-0.1,0-0.3,0.1-0.4,0.2L2.8,21.8c-0.1,0.1-0.1,0.2-0.2,0.3L0,29c-0.1,0.3,0,0.6,0.2,0.8C0.4,30,0.7,30.1,1,29.9l6.8-2.6
		c0.1,0,0.2-0.1,0.3-0.2L29.8,5.6c0.3-0.3,0.3-0.7,0.1-1C29.8,4.6,25.3,0.1,25.3,0.1z"/>
</g>
</svg>
