<svg xmlns="http://www.w3.org/2000/svg" width="30" height="30" viewBox="0 0 30 30">
    <path fill="#FFF" fill-rule="evenodd" d="M24.861 24.68c-.022.023-.058.027-.085.008-1.05-.767-2.326-1.188-3.45-1.558-.155-.05-.307-.101-.456-.152-.654-.22-1.326-.461-1.814-.741-.403-.232-.653-.485-.811-.818-.009-.02-.008-.042.002-.06.01-.019.028-.03.05-.034.946-.124 2.019-.287 2.785-.567.487-.178.845-.36 1.125-.571.396-.299.588-.627.588-1.004 0-.166-.072-.325-.194-.436-.073-.066-.219-.337-.3-.78-.078-.419-.121-.99-.132-1.746-.008-.538 0-1.126.006-1.75.013-.99.026-2.017-.019-3.05-.062-1.431-.23-3.256-.995-4.668-.741-1.37-2.06-2.127-3.714-2.13-.013 0-.026-.005-.037-.012-.64-.442-1.431-.667-2.35-.667-.013.002-.028 0-.041.002-2.238.16-4.018 1.043-5.147 2.548-.894 1.195-1.43 2.744-1.687 4.874-.15 1.25-.183 2.508-.21 3.619-.012.438-.022.852-.04 1.24-.034.774-.092 1.348-.178 1.754-.1.463-.253.732-.353.822-.127.111-.199.271-.199.44 0 .475.31.875.6 1.09.289.216.64.376 1.169.534.722.215 1.66.337 2.653.466l.04.005c.02.003.038.015.048.033.01.018.012.04.004.058-.148.332-.41.598-.826.837-.49.28-1.181.527-1.792.73-.144.05-.293.097-.443.146-1.118.365-2.384.779-3.434 1.546-.012.008-.026.012-.039.012-.017 0-.034-.006-.046-.02-2.554-2.6-3.96-6.037-3.96-9.68C1.18 7.38 7.38 1.18 15 1.18c7.622 0 13.821 6.2 13.821 13.82 0 3.642-1.406 7.08-3.959 9.68m-.994.922c-2.481 2.075-5.63 3.218-8.867 3.218-3.237 0-6.387-1.143-8.867-3.218-.016-.013-.024-.034-.023-.054.001-.021.012-.04.03-.051.882-.567 2.025-.947 3.13-1.315l.205-.067c.714-.24 1.404-.482 2.005-.827.707-.407 1.162-.895 1.39-1.493.014-.036.024-.074.031-.113.063-.377.069-.62.069-.817 0-.298-.225-.55-.52-.585-1.521-.181-2.49-.349-3.14-.543-.346-.103-.646-.233-.8-.349-.089-.065-.12-.09-.113-.137.002-.014.01-.027.021-.037l.073-.115c.179-.277.348-.54.42-.872.13-.614.175-1.33.203-1.948.017-.413.029-.84.041-1.294.03-1.138.06-2.315.2-3.476.23-1.89.707-3.3 1.462-4.307.95-1.269 2.304-1.929 4.26-2.075h.006c.844.006 1.52.263 1.815.515.107.092.242.142.383.142h.02c1.395-.055 2.21.393 2.824 1.53.486.898.773 2.298.853 4.158.042.968.03 1.963.018 2.925-.008.65-.015 1.263-.006 1.841.012.848.06 1.447.151 1.942.066.355.182.678.357.99.017.028.009.065-.018.084-.177.13-.469.275-.802.396-.793.29-1.927.518-3.113.628-.304.029-.534.28-.535.587v.685c0 .072.013.143.04.21.227.599.685 1.088 1.399 1.497.611.351 1.306.598 2.025.84l.218.073c1.114.374 2.266.76 3.148 1.327.018.011.029.03.03.05.001.021-.007.042-.023.055M15 0C6.729 0 0 6.73 0 15c0 8.271 6.729 15 15 15 8.27 0 15-6.729 15-15 0-8.27-6.73-15-15-15"/>
</svg>
