<?xml version="1.0" encoding="utf-8"?>
<!-- Generator: Adobe Illustrator 24.0.2, SVG Export Plug-In . SVG Version: 6.00 Build 0)  -->
<svg version="1.1" xmlns="http://www.w3.org/2000/svg" xmlns:xlink="http://www.w3.org/1999/xlink" x="0px" y="0px"
	 viewBox="0 0 119 2" style="enable-background:new 0 0 119 2;" xml:space="preserve">
<style type="text/css">
	.st0{fill:#F8F9FA;}
	.st1{fill:#52576A;}
</style>
<g id="Слой_2">
	<rect y="0" class="st0" width="119" height="2"/>
</g>
<g id="Слой_1">
	<path class="st1" d="M1,2h3c0.6,0,1-0.4,1-1S4.6,0,4,0H1C0.4,0,0,0.4,0,1S0.4,2,1,2z M8,2h3c0.6,0,1-0.4,1-1s-0.4-1-1-1H8
		C7.4,0,7,0.4,7,1S7.4,2,8,2z M15,2h3c0.6,0,1-0.4,1-1s-0.4-1-1-1h-3c-0.6,0-1,0.4-1,1S14.4,2,15,2z M22,2h3c0.6,0,1-0.4,1-1
		s-0.4-1-1-1h-3c-0.6,0-1,0.4-1,1S21.4,2,22,2z M29,2h3c0.6,0,1-0.4,1-1s-0.4-1-1-1h-3c-0.6,0-1,0.4-1,1S28.4,2,29,2z M36,2h3
		c0.6,0,1-0.4,1-1s-0.4-1-1-1h-3c-0.6,0-1,0.4-1,1S35.4,2,36,2z M43,2h3c0.6,0,1-0.4,1-1s-0.4-1-1-1h-3c-0.6,0-1,0.4-1,1
		S42.4,2,43,2z M50,2h3c0.6,0,1-0.4,1-1s-0.4-1-1-1h-3c-0.6,0-1,0.4-1,1S49.4,2,50,2z M57,2h3c0.6,0,1-0.4,1-1s-0.4-1-1-1h-3
		c-0.6,0-1,0.4-1,1S56.4,2,57,2z M64,2h3c0.6,0,1-0.4,1-1s-0.4-1-1-1h-3c-0.6,0-1,0.4-1,1S63.4,2,64,2z M71,2h3c0.6,0,1-0.4,1-1
		s-0.4-1-1-1h-3c-0.6,0-1,0.4-1,1S70.4,2,71,2z M78,2h3c0.6,0,1-0.4,1-1s-0.4-1-1-1h-3c-0.6,0-1,0.4-1,1S77.4,2,78,2z M85,2h3
		c0.6,0,1-0.4,1-1s-0.4-1-1-1h-3c-0.6,0-1,0.4-1,1S84.4,2,85,2z M92,2h3c0.6,0,1-0.4,1-1s-0.4-1-1-1h-3c-0.6,0-1,0.4-1,1
		S91.4,2,92,2z M99,2h3c0.6,0,1-0.4,1-1s-0.4-1-1-1h-3c-0.6,0-1,0.4-1,1S98.4,2,99,2z M106,2h3c0.6,0,1-0.4,1-1s-0.4-1-1-1h-3
		c-0.6,0-1,0.4-1,1S105.4,2,106,2z M113,2h3c0.6,0,1-0.4,1-1s-0.4-1-1-1h-3c-0.6,0-1,0.4-1,1S112.4,2,113,2z"/>
</g>
</svg>
