<svg xmlns="http://www.w3.org/2000/svg" width="132" height="20" viewBox="0 0 132 20">
    <path fill="#FFF" fill-rule="evenodd" d="M52.22.555c2.336 0 4.188.699 6.148 2.39.725.671.806 1.853.08 2.604-.725.645-1.825.564-2.469-.08-1.1-1.155-2.228-1.477-3.759-1.477-4.134 0-6.121 2.926-6.121 6.202 0 3.329 1.96 6.39 6.121 6.39 1.53 0 2.953-.619 4.188-1.72.833-.644 1.987-.321 2.47.323.43.59.644 1.585-.295 2.524-1.88 1.745-4.134 2.094-6.363 2.094-6.497 0-9.423-4.43-9.423-9.611 0-5.181 3.249-9.639 9.423-9.639zm33.668 0c6.174 0 9.422 4.457 9.422 9.639 0 5.181-2.926 9.611-9.422 9.611-2.23 0-4.484-.349-6.363-2.094-.94-.94-.725-1.934-.295-2.524.483-.644 1.637-.966 2.47-.322 1.234 1.1 2.657 1.719 4.188 1.719 4.16 0 6.12-3.061 6.12-6.39 0-3.276-1.986-6.202-6.12-6.202-1.53 0-2.659.322-3.76 1.476-.644.645-1.744.725-2.469.08-.725-.75-.644-1.932.08-2.603 1.96-1.691 3.813-2.39 6.149-2.39zm43.698.661c2.47 0 2.416 3.49 0 3.49h-7.731v4.027h6.765c2.389 0 2.389 3.517 0 3.517h-6.765v4.027h7.632c2.443 0 2.63 3.517 0 3.517h-9.54a1.64 1.64 0 0 1-1.664-1.665V2.88c0-.967.725-1.664 1.665-1.664zM64.6 1.189c.858 0 1.583.751 1.583 1.638v13.45h7.302c2.631 0 2.685 3.517 0 3.517H64.6c-.94 0-1.692-.671-1.692-1.638V2.826c0-.886.752-1.637 1.692-1.637zm48.09-.215c.967 0 1.907.966 1.907 1.853V17.94c0 1.182-.725 1.638-1.423 1.853-.94 0-1.396-.215-2.175-.94L102.112 7.58V17.94c0 1.182-.725 1.853-1.691 1.853-.967 0-1.826-.671-1.826-1.853V3.095c0-.967.215-1.906 1.611-1.906.967 0 1.181.242 1.906.94l8.886 11.114V2.827c0-.887.779-1.853 1.692-1.853zM30.662 16.519h-4.456V4.49h4.456c7.57 0 7.249 12.028 0 12.028m0-15.303c12.269 0 12 18.578.242 18.578h-6.39c-.886 0-1.852-.484-1.852-1.665V2.88c0-.966.966-1.664 1.852-1.664zM1.61.974c.778 0 1.234.457 1.691.966l5.906 7.974 6.122-8.268c.885-1.102 3.06-.672 3.06 1.18v15.115c0 1.182-.752 1.853-1.61 1.853-.967 0-1.719-.671-1.719-1.853V8.008l-4.457 5.638c-.966 1.181-2.174 1.181-3.06 0l-4-5.638v9.933c0 1.182-.967 1.853-1.933 1.853C.752 19.794 0 19.123 0 17.94V2.827C0 1.43 1.18.974 1.61.974z"/>
</svg>
