<svg xmlns="http://www.w3.org/2000/svg" width="139" height="94" viewBox="0 0 139 94">
    <path fill="#ACB2C3" fill-rule="evenodd" d="M53.7 23.918c.909 3.171.91 7.898-2.656 9.343-1.431.58-3.153.354-3.991-1.048-.746-1.244-.673-2.948-.033-4.22 1.217-2.416 3.957-3.55 6.68-4.075m28.222 17.129c.151.505.29 1.018.41 1.536.801 3.457.954 7.282-.005 10.724-.737 2.65-2.515 5.96-5.49 6.51-1.59.295-3.093-.401-4.163-1.553-1.226-1.32-1.709-3.087-1.616-4.856.195-3.723 2.81-7.177 5.631-9.416 1.592-1.263 3.363-2.242 5.233-2.945M15.12 7.677c.168.58.902 1.085 1.516.832 3.46-1.435 7.582-1.598 11.254-1.113 3.762.496 7.506 1.57 11.006 3.028 5.361 2.234 11.19 5.723 13.87 11.11-1.73.377-3.427.965-4.912 1.936-1.83 1.196-3.298 2.968-3.716 5.154-.38 1.992.001 4.138 1.36 5.69 1.425 1.63 3.758 2.063 5.78 1.468 2.19-.647 3.818-2.333 4.64-4.431.968-2.468.953-5.2.291-7.768.29-.023.574-.042.848-.057 3.923-.204 7.907.537 11.49 2.152 5.815 2.622 10.26 7.36 12.602 13.165-1.301.485-2.57 1.091-3.787 1.827-3.59 2.174-6.601 5.462-8.016 9.45-1.45 4.084-.45 9.213 3.658 11.354 1.7.886 3.757 1.013 5.536.277 1.729-.717 3.057-2.016 4.1-3.546 2.22-3.262 2.782-7.388 2.639-11.25-.084-2.252-.453-4.476-1.08-6.618 4.385-1.094 9.128-.789 13.352.858 7.881 3.073 13.767 9.97 16.83 17.716 3.163 7.996 3.682 16.756 3.234 25.26-.03.553-.066 1.104-.107 1.656-.155-.582-.332-1.159-.53-1.733-.386-1.108-.835-2.19-1.353-3.241-.544-1.104-1.053-2.262-2.105-2.96-.675-.447-1.747.197-1.65 1.007.143 1.2.863 2.176 1.391 3.238.454.912.88 1.842 1.256 2.79.802 2.029 1.46 4.138 2.011 6.247.18.686 1.351.922 1.64.18.214-.55.678-1.071.973-1.59.263-.461.523-.926.794-1.383.611-1.03 1.265-2.034 1.944-3.02.656-.952 1.351-1.875 2.025-2.814.686-.957 1.484-1.9 1.992-2.967.397-.835-.583-1.501-1.263-.933-.936.786-1.69 1.842-2.439 2.803-.711.914-1.39 1.859-2.051 2.808-.473.675-.932 1.36-1.376 2.057 1.323-7.87 1.176-15.999-.907-23.73-2.422-8.99-7.816-17.272-16.059-21.905-5.596-3.145-12.235-4.121-18.349-2.558-1.97-5.1-5.44-9.591-10.056-12.656-3.695-2.451-8.01-3.936-12.414-4.385-1.877-.191-3.758-.184-5.628.027-.282-.648-.6-1.275-.953-1.871-1.992-3.372-5.022-6.02-8.29-8.112-3.424-2.192-7.212-3.76-11.093-4.935-4.167-1.261-8.612-2.06-12.974-1.646-2.151.204-4.107.795-6.093 1.617-.61.253-1.03.833-.831 1.515"/>
</svg>
