<svg xmlns="http://www.w3.org/2000/svg" width="24" height="24" viewBox="0 0 24 24">
    <path fill="#5303A8" fill-rule="evenodd" d="M11.522 14.663a1.161 1.161 0 1 1 .001 2.323 1.161 1.161 0 0 1 0-2.323zm.03-8.605c.384 0 .695.31.695.694v5.903a.695.695 0 0 1-1.388 0V6.752c0-.383.31-.694.694-.694zm9.408 6.877l-8.023 8.024c-.39.39-.902.583-1.415.583a1.992 1.992 0 0 1-1.414-.583l-8.024-8.024a2.005 2.005 0 0 1 0-2.828l8.024-8.025a1.996 1.996 0 0 1 1.414-.583 2 2 0 0 1 1.415.583l8.023 8.025a2.005 2.005 0 0 1 0 2.828m1.061-3.889l-8.024-8.024A3.478 3.478 0 0 0 11.522 0c-.937 0-1.815.363-2.475 1.022L1.023 9.046a3.505 3.505 0 0 0 0 4.95l8.024 8.024a3.478 3.478 0 0 0 2.475 1.022c.937 0 1.815-.363 2.475-1.022l8.024-8.024a3.504 3.504 0 0 0 0-4.95"/>
</svg>
