<?xml version="1.0" encoding="utf-8"?>
<!-- Generator: Adobe Illustrator 17.1.0, SVG Export Plug-In . SVG Version: 6.00 Build 0)  -->
<!DOCTYPE svg PUBLIC "-//W3C//DTD SVG 1.1//EN" "http://www.w3.org/Graphics/SVG/1.1/DTD/svg11.dtd">
<svg version="1.1" id="Layer_1" xmlns="http://www.w3.org/2000/svg" xmlns:xlink="http://www.w3.org/1999/xlink" x="0px" y="0px"
	 viewBox="-3 -3 30 30" enable-background="new -3 -3 30 30" xml:space="preserve">
<g>
	<path id="a" fill="#ACB2C3" d="M17.5,0c1.1,0,1.9,0.9,1.9,1.9v0.3h1.9c0.2,0,0.4,0,0.7,0.1c0,0,0,0,0.1,0c1.2,0.3,2,1.4,2,2.6v16.4
		c0,1.4-1,2.5-2.4,2.7l0,0H2.7C1.2,24,0,22.8,0,21.3c0,0,0,0,0,0V4.9c0-1.5,1.2-2.7,2.7-2.7h1.9V1.9c0-1.1,0.9-1.9,2-1.9
		c1,0,1.8,0.8,1.9,1.9v0.3h7.1V1.9C15.5,0.9,16.4,0,17.5,0z M22.9,9.3H1.1v12c0,0.9,0.7,1.6,1.6,1.6h18.5c0.9,0,1.6-0.7,1.6-1.6
		L22.9,9.3L22.9,9.3z M12.8,17.2c0.3,0,0.5,0.3,0.5,0.5v1.6c0,0.3-0.2,0.5-0.5,0.5l0,0h-1.6c-0.3,0-0.5-0.3-0.5-0.5v-1.6
		c0-0.3,0.2-0.5,0.5-0.5H12.8z M19.4,17.2c0.3,0,0.5,0.3,0.5,0.5v1.6c0,0.3-0.2,0.5-0.5,0.5l0,0h-1.6c-0.3,0-0.5-0.3-0.5-0.5v-1.6
		c0-0.3,0.2-0.5,0.5-0.5H19.4z M6.3,17.2c0.3,0,0.5,0.3,0.5,0.5v1.6c0,0.3-0.2,0.5-0.5,0.5c0,0,0,0,0,0H4.6c-0.3,0-0.5-0.3-0.5-0.5
		v-1.6c0-0.3,0.2-0.5,0.5-0.5H6.3z M12.8,11.7c0.3,0,0.5,0.3,0.5,0.5v1.6c0,0.3-0.2,0.5-0.5,0.5l0,0h-1.6c-0.3,0-0.5-0.3-0.5-0.5
		v-1.6c0-0.3,0.2-0.5,0.5-0.5H12.8z M19.4,11.7c0.3,0,0.5,0.3,0.5,0.5v1.6c0,0.3-0.2,0.5-0.5,0.5l0,0h-1.6c-0.3,0-0.5-0.3-0.5-0.5
		v-1.6c0-0.3,0.2-0.5,0.5-0.5H19.4z M6.3,11.7c0.3,0,0.5,0.3,0.5,0.5v1.6c0,0.3-0.2,0.5-0.5,0.5c0,0,0,0,0,0H4.6
		c-0.3,0-0.5-0.3-0.5-0.5v-1.6c0-0.3,0.2-0.5,0.5-0.5H6.3z M4.6,3.3H2.7C1.8,3.3,1.1,4,1.1,4.9v3.3h21.8V4.9c0-0.6-0.3-1.1-0.7-1.4
		l0,0c0,0-0.1,0-0.1-0.1l0,0c-0.1,0-0.2-0.1-0.2-0.1l-0.1,0l-0.1,0l-0.1,0c0,0-0.1,0-0.1,0l0,0c-0.1,0-0.1,0-0.2,0h-1.9v0.3
		c0,1.1-0.9,1.9-1.9,1.9s-1.9-0.9-1.9-1.9V3.3H8.5v0.3c0,1.1-0.9,1.9-1.9,1.9S4.6,4.6,4.6,3.5L4.6,3.3L4.6,3.3z M6.6,1.1
		c-0.5,0-0.8,0.4-0.8,0.8c0,0,0,0,0,0v1.6c0,0.5,0.4,0.8,0.9,0.8C7,4.3,7.4,4,7.4,3.5V1.9C7.4,1.5,7,1.1,6.6,1.1L6.6,1.1z M17.5,1.1
		c-0.5,0-0.8,0.4-0.8,0.8c0,0,0,0,0,0h0l0,1.6c0,0.5,0.4,0.8,0.8,0.8c0.4,0,0.8-0.4,0.8-0.8V1.9C18.3,1.5,17.9,1.1,17.5,1.1
		C17.5,1.1,17.5,1.1,17.5,1.1L17.5,1.1z"/>
</g>
</svg>
