<svg xmlns="http://www.w3.org/2000/svg" xmlns:xlink="http://www.w3.org/1999/xlink" width="30" height="30" viewBox="0 0 30 30">
    <defs>
        <path id="a" d="M13.308 16.5c.297 0 .538.234.538.525v.075a.531.531 0 0 1-.538.525H8.23a.531.531 0 0 1-.539-.525v-.075c0-.291.242-.525.539-.525h5.077zm0-3c.297 0 .538.234.538.525v.075a.531.531 0 0 1-.538.525H8.23a.531.531 0 0 1-.539-.525v-.075c0-.291.242-.525.539-.525h5.077zm.793-4.87h4.337v12.433a.857.857 0 0 1-.866.846H4.606a.857.857 0 0 1-.866-.846V4.601c0-.466.388-.845.866-.845h8.965v4.357c0 .285.238.517.53.517zm.53-1.034V4.512l3.082 3.084H14.63zM4.606 2.722l9.56.01c.096 0 .22.055.312.145l4.916 4.938c.02.026.046.06.065.106.022.051.027.103.032.14l.007.058v12.944c0 1.036-.864 1.878-1.926 1.878H4.606c-1.063 0-1.928-.842-1.928-1.878V4.601c0-1.037.865-1.88 1.928-1.88zM11.876 0c1.062 0 1.926.841 1.926 1.878v.477h-1.06v-.477a.858.858 0 0 0-.866-.845h-9.95a.858.858 0 0 0-.866.845V18.34c0 .466.39.846.866.846h.53v1.033h-.53C.863 20.22 0 19.376 0 18.34V1.878C0 .84.863 0 1.926 0z"/>
    </defs>
    <g fill="none" fill-rule="evenodd">
        <g transform="translate(5 4)">
            <use fill="#0D1E42" xlink:href="#a"/>
        </g>
    </g>
</svg>
