<?xml version="1.0" encoding="utf-8"?>
<!-- Generator: Adobe Illustrator 17.1.0, SVG Export Plug-In . SVG Version: 6.00 Build 0)  -->
<!DOCTYPE svg PUBLIC "-//W3C//DTD SVG 1.1//EN" "http://www.w3.org/Graphics/SVG/1.1/DTD/svg11.dtd">
<svg version="1.1" id="Layer_1" xmlns="http://www.w3.org/2000/svg" xmlns:xlink="http://www.w3.org/1999/xlink" x="0px" y="0px"
	 viewBox="-13.5 -7.5 30 30" enable-background="new -13.5 -7.5 30 30" xml:space="preserve">
<g>
	<path id="a" fill="#0D1E42" d="M1.5,12C2.3,12,3,12.7,3,13.5S2.3,15,1.5,15S0,14.3,0,13.5S0.7,12,1.5,12z M1.5,6C2.3,6,3,6.7,3,7.5
		S2.3,9,1.5,9S0,8.3,0,7.5S0.7,6,1.5,6z M1.5,0C2.3,0,3,0.7,3,1.5S2.3,3,1.5,3S0,2.3,0,1.5S0.7,0,1.5,0z"/>
</g>
</svg>
