<svg xmlns="http://www.w3.org/2000/svg" xmlns:xlink="http://www.w3.org/1999/xlink" width="30" height="30" viewBox="0 0 30 30">
    <defs>
        <path id="a" d="M17.866 21.151c0 .9-1.064 1.618-2.002 1.618H5.137c-.938 0-2.001-.718-2.001-1.618L3.134 4h14.732v17.151zM14.26 10.832c.346 0 .627.242.627.54V17c0 .298-.28.54-.627.54-.346 0-.627-.242-.627-.54v-5.627c0-.299.281-.54.627-.54zm-7.522 0c.346 0 .627.242.627.54V17c0 .298-.281.54-.627.54s-.627-.242-.627-.54v-5.627c0-.299.28-.54.627-.54zm3.761 0c.346 0 .627.242.627.54V17c0 .298-.28.54-.627.54-.346 0-.627-.242-.627-.54v-5.627c0-.299.28-.54.627-.54zm1.93-9.601c.259 0 .42.189.42.408v1.13H7.837V1.64c0-.251.195-.408.42-.408h4.174zm1.916 1.58V1.733c0-.956-.82-1.734-1.829-1.734H8.45C7.442 0 6.621.778 6.621 1.734V2.81H.725c-.41 0-.725.299-.725.688 0 .388.315.687.725.687h1.23v16.796C1.955 22.625 3.373 24 5.14 24h10.783c1.734 0 3.185-1.345 3.185-3.019V4.155h1.166c.41 0 .726-.3.726-.688 0-.389-.347-.657-.758-.657h-5.896z"/>
    </defs>
    <g fill="none" fill-rule="evenodd">
        <g transform="translate(4 3)">
            <use fill="#0D1E42" xlink:href="#a"/>
        </g>
    </g>
</svg>
