<svg xmlns="http://www.w3.org/2000/svg" xmlns:xlink="http://www.w3.org/1999/xlink" width="30" height="30" viewBox="0 0 30 30">
    <defs>
        <path id="a" d="M14.778 16.258c.377-.021.69.294.69.699 0 .382-.312.698-.69.698L.689 17.654A.697.697 0 0 1 0 16.956c0-.382.31-.698.69-.698zM7.733 0l.094.007c.334.046.596.34.596.69v11.34l2.71-2.745a.69.69 0 0 1 .978 0c.267.27.267.72 0 .99l-3.889 3.937a.684.684 0 0 1-.489.202.683.683 0 0 1-.488-.202l-3.89-3.937a.712.712 0 0 1 0-.99.69.69 0 0 1 .978 0l2.711 2.724V.698c0-.383.312-.698.69-.698z"/>
    </defs>
    <g fill="none" fill-rule="evenodd">
        <use fill="#0D1E42" transform="translate(7 6)" xlink:href="#a"/>
    </g>
</svg>
