<svg xmlns="http://www.w3.org/2000/svg" xmlns:xlink="http://www.w3.org/1999/xlink" width="30" height="30" viewBox="0 0 30 30">
    <defs>
        <path id="a" d="M12.773 1.952l3.293 3.36h-3.293v-3.36zM18.1 11.954a.795.795 0 0 1 .845-.147c.091.04.18.095.253.169l1.999 2.045a.764.764 0 0 1-.019 1.08l-8.013 7.648a.493.493 0 0 1-.191.111l-3.69 1.152a.492.492 0 0 1-.501-.125.468.468 0 0 1-.109-.495l1.292-3.599a.468.468 0 0 1 .12-.186zm-7.474 8.894l-.702 1.951 2.003-.623-1.301-1.328zM2.06 0l10.216.013c.102 0 .236.059.333.157l5.252 5.382c.022.028.052.065.07.115.024.056.03.113.035.153l.008.063v4.96l-1.133 1.127V6.44h-4.634a.565.565 0 0 1-.567-.563V1.128H2.06a.924.924 0 0 0-.925.92V19.99c0 .508.414.922.925.922l6.366-.063-.352 1.188H2.06A2.055 2.055 0 0 1 0 19.989V2.05C0 .918.924 0 2.06 0zm14.928 14.371l-5.87 5.596 1.718 1.75 5.865-5.597-1.713-1.749zm1.649-1.578l-.951.908 1.72 1.752.95-.907-1.72-1.753zm-7.205-1.046c.317 0 .575.254.575.571v.083a.573.573 0 0 1-.575.572H5.86a.573.573 0 0 1-.575-.572v-.083c0-.317.258-.571.575-.571zm0-3.269c.317 0 .575.256.575.572v.081a.573.573 0 0 1-.575.572H5.86a.573.573 0 0 1-.575-.572V9.05c0-.316.258-.572.575-.572z"/>
    </defs>
    <g fill="none" fill-rule="evenodd">
        <g transform="translate(4 3)">
            <use fill="#0D1E42" xlink:href="#a"/>
        </g>
    </g>
</svg>
