<?xml version="1.0" encoding="utf-8"?>
<!-- Generator: Adobe Illustrator 17.1.0, SVG Export Plug-In . SVG Version: 6.00 Build 0)  -->
<!DOCTYPE svg PUBLIC "-//W3C//DTD SVG 1.1//EN" "http://www.w3.org/Graphics/SVG/1.1/DTD/svg11.dtd">
<svg version="1.1" id="Layer_1" xmlns="http://www.w3.org/2000/svg" xmlns:xlink="http://www.w3.org/1999/xlink" x="0px" y="0px"
	 viewBox="-2 -2.5 30 30" enable-background="new -2 -2.5 30 30" xml:space="preserve">
<path fill="#0D1E42" d="M8.3,17.6L19.7,6.2v6.7H21V4h-8.8v1.3h6.7L7.4,16.7c-0.2,0.3-0.2,0.7,0.1,0.9C7.7,17.8,8.1,17.8,8.3,17.6
	L8.3,17.6z"/>
<path fill="#0D1E42" d="M24.3,0H4.1C3.5,0,3,0.5,3,1.1v6.3H1.1C0.5,7.5,0,8,0,8.6v15.3C0,24.5,0.5,25,1.1,25h15.7
	c0.6,0,1.1-0.5,1.1-1.1v-1.5h6.3c0.6,0,1.1-0.5,1.1-1.1v0V1.1C25.4,0.5,24.9,0,24.3,0z M16.7,23.8H1.2v-15H3v12.9
	c0,0.4,0.3,0.7,0.7,0.7h12.9V23.8z M24.1,21.2H4.2V1.2h19.9V21.2z"/>
</svg>
