<svg xmlns="http://www.w3.org/2000/svg" width="30" height="30" viewBox="0 0 30 30">
    <g fill="none" fill-rule="evenodd">
        <path fill="#0D1E42" d="M23.053 9.247l-2.325-2.325 1.544-1.563 2.343 2.344-1.562 1.544zM10.5 21.801l.052-.054-2.325-2.325-.054.053L19.91 7.721l2.343 2.343L10.5 21.801zm-.963.962l-3.213 1.384-.497-.497 1.384-3.213.208-.208 2.325 2.327-.207.207zm13-18.7a.573.573 0 0 0-.373-.052.575.575 0 0 0-.284.159L6.04 20.011a.516.516 0 0 0-.124.195l-1.882 5.006a.562.562 0 0 0 .133.595.56.56 0 0 0 .594.133l5.007-1.881a.564.564 0 0 0 .195-.124l15.84-15.841a.57.57 0 0 0 .054-.729l-3.32-3.302z"/>
    </g>
</svg>
