<svg xmlns="http://www.w3.org/2000/svg" width="25" height="22" viewBox="0 0 25 22">
    <path fill="#E20343" fill-rule="evenodd" d="M12.187 15.734a1.161 1.161 0 1 1 0 2.322 1.161 1.161 0 0 1 0-2.322zm.03-8.607c.383 0 .694.311.694.694v5.903a.694.694 0 0 1-1.388 0V7.821c0-.382.31-.694.694-.694zm-.03 12.883H1.5l5.343-9.255L12.187 1.5l5.343 9.255 5.343 9.255H12.187zm11.985-.75l-5.343-9.255L13.486.75a1.503 1.503 0 0 0-2.599 0l-5.343 9.255L.201 19.26A1.5 1.5 0 0 0 1.5 21.51H22.873a1.5 1.5 0 0 0 1.299-2.25z"/>
</svg>
