<svg xmlns="http://www.w3.org/2000/svg" xmlns:xlink="http://www.w3.org/1999/xlink" width="22" height="22" viewBox="0 0 22 22">
    <defs>
        <path id="a" d="M11 16a1 1 0 1 1 0 2 1 1 0 0 1 0-2zm.102-11c1.18 0 2.123.337 2.832 1.01.71.673 1.064 1.533 1.064 2.58 0 .635-.13 1.15-.39 1.545s-.786.975-1.576 1.741c-.574.557-.947 1.028-1.117 1.414-.17.386-.256.956-.256 1.71H10.06c0-.856.102-1.546.305-2.07.204-.523.65-1.123 1.338-1.799l.718-.71c.215-.203.389-.415.52-.636.24-.39.36-.793.36-1.212 0-.587-.175-1.095-.526-1.526-.35-.431-.929-.647-1.737-.647-.999 0-1.69.371-2.073 1.113-.216.413-.338 1.009-.368 1.787H7c0-1.293.365-2.333 1.095-3.12C8.825 5.393 9.828 5 11.102 5zM11 1.515c5.23 0 9.485 4.253 9.485 9.485 0 5.23-4.253 9.485-9.485 9.485-5.23 0-9.485-4.254-9.485-9.485 0-5.23 4.254-9.485 9.485-9.485M11 22c6.062 0 11-4.937 11-11S17.062 0 11 0 0 4.937 0 11s4.938 11 11 11"/>
    </defs>
    <use fill="#0D1E42" fill-rule="evenodd" xlink:href="#a"/>
</svg>
