<?xml version="1.0" encoding="utf-8"?>
<!-- Generator: Adobe Illustrator 24.0.2, SVG Export Plug-In . SVG Version: 6.00 Build 0)  -->
<svg version="1.1" id="Слой_1" xmlns="http://www.w3.org/2000/svg" xmlns:xlink="http://www.w3.org/1999/xlink" x="0px" y="0px"
	 viewBox="0 0 28 18" style="enable-background:new 0 0 28 18;" xml:space="preserve">
<style type="text/css">
	.st0{fill:#FFFFFF;}
</style>
<path class="st0" d="M27,15.55c0.55,0,1,0.43,1,0.96c0,0.49-0.39,0.9-0.88,0.96L27,17.48H1c-0.55,0-1-0.43-1-0.96
	c0-0.49,0.39-0.9,0.88-0.96L1,15.55L27,15.55L27,15.55z M20,7.85c0.55,0,1,0.43,1,0.96c0,0.49-0.39,0.9-0.88,0.96L20,9.78H1
	c-0.55,0-1-0.43-1-0.96c0-0.49,0.39-0.9,0.88-0.96L1,7.85H20z M27,0.15c0.55,0,1,0.43,1,0.96c0,0.49-0.39,0.9-0.88,0.96L27,2.07H1
	c-0.55,0-1-0.43-1-0.96c0-0.49,0.39-0.9,0.88-0.96L1,0.15C1,0.15,27,0.15,27,0.15z"/>
</svg>
