<?xml version="1.0" encoding="utf-8"?>
<!-- Generator: Adobe Illustrator 24.0.2, SVG Export Plug-In . SVG Version: 6.00 Build 0)  -->
<svg version="1.1" id="Слой_1" xmlns="http://www.w3.org/2000/svg" xmlns:xlink="http://www.w3.org/1999/xlink" x="0px" y="0px"
	 viewBox="0 0 42 18" style="enable-background:new 0 0 42 18;" xml:space="preserve">
<style type="text/css">
	.st0{fill:#FFFFFF;}
</style>
<path class="st0" d="M41,16c0.55,0,1,0.45,1,1c0,0.51-0.39,0.94-0.88,0.99L41,18H15c-0.55,0-1-0.45-1-1c0-0.51,0.39-0.94,0.88-0.99
	L15,16H41z"/>
<path class="st0" d="M34,8c0.55,0,1,0.45,1,1c0,0.51-0.39,0.94-0.88,0.99L34,10H15c-0.55,0-1-0.45-1-1c0-0.51,0.39-0.94,0.88-0.99
	L15,8H34z"/>
<polygon class="st0" points="4.53,5.46 5.59,6.52 2.12,9.99 5.59,13.46 4.53,14.52 0,9.99 "/>
<path class="st0" d="M41,0.1c0.55,0,1,0.45,1,1c0,0.51-0.39,0.94-0.88,0.99L41,2.1H15c-0.55,0-1-0.45-1-1
	c0-0.51,0.39-0.94,0.88-0.99L15,0.1H41z"/>
</svg>
