<svg xmlns="http://www.w3.org/2000/svg" xmlns:xlink="http://www.w3.org/1999/xlink" width="22" height="22" viewBox="0 0 22 22">
    <defs>
        <path id="a" d="M11.161 8.323a1.161 1.161 0 1 1 0-2.323 1.161 1.161 0 0 1 0 2.323zm-.03 8.605a.694.694 0 0 1-.695-.694v-5.902a.695.695 0 0 1 1.39 0v5.902a.695.695 0 0 1-.695.694zM11 1.515c5.23 0 9.485 4.253 9.485 9.485 0 5.23-4.253 9.485-9.485 9.485-5.23 0-9.485-4.254-9.485-9.485 0-5.23 4.254-9.485 9.485-9.485M11 22c6.062 0 11-4.937 11-11 0-6.062-4.938-11-11-11S0 4.938 0 11c0 6.063 4.938 11 11 11"/>
    </defs>
    <use fill="#0D1E42" fill-rule="evenodd" xlink:href="#a"/>
</svg>
