<svg xmlns="http://www.w3.org/2000/svg" width="20" height="20" viewBox="0 0 20 20">
    <path fill="#727891" fill-rule="evenodd" d="M14.055 5.07c0-.255.1-.496.28-.679a.932.932 0 0 1 .667-.284.962.962 0 0 1 .668 1.641.932.932 0 0 1-.668.284c-.25 0-.487-.1-.667-.284a.963.963 0 0 1-.28-.678m.948 2.131c.563 0 1.09-.221 1.485-.622.394-.402.612-.938.612-1.51 0-.572-.218-1.108-.613-1.509a2.069 2.069 0 0 0-1.485-.622c-.563 0-1.09.221-1.485.623a2.137 2.137 0 0 0-.612 1.509c0 .572.217 1.108.612 1.509.395.401.923.622 1.486.622M7.23 13.778a.584.584 0 0 0-.524.532l-.134 1.519-1.495.136a.584.584 0 0 0-.524.533l-.135 1.557-3.1.539.235-2.308 7.383-7.503.12-.122h-.03c.084-.15.1-.335.037-.5a5.165 5.165 0 0 1-.223-2.837 5.102 5.102 0 0 1 1.305-2.51l.063-.063a4.984 4.984 0 0 1 1.656-1.12 4.905 4.905 0 0 1 1.882-.373c.65 0 1.282.125 1.882.373.62.256 1.178.633 1.657 1.12a5.125 5.125 0 0 1 1.469 3.596 5.126 5.126 0 0 1-1.47 3.595 4.964 4.964 0 0 1-5.33 1.157.57.57 0 0 0-.608.136l-2.342 2.38-1.58.146.001-.002-.195.019zm12.223-9.789A6.212 6.212 0 0 0 16.066.547 6.068 6.068 0 0 0 13.747.09a6.09 6.09 0 0 0-4.25 1.726l-.001-.003-.105.107a6.177 6.177 0 0 0-1.624 2.984 6.455 6.455 0 0 0 .125 3.28L.72 15.472v-.001l-.12.122a.595.595 0 0 0-.166.351l-.342 3.299a.596.596 0 0 0 .178.49.567.567 0 0 0 .493.152l4.288-.746a.587.587 0 0 0 .48-.525l.134-1.52 1.495-.136.064-.006v-.004a.585.585 0 0 0 .46-.523l.134-1.519 1.495-.136a.57.57 0 0 0 .357-.17l2.275-2.31a6.23 6.23 0 0 0 1.852.282 5.997 5.997 0 0 0 4.306-1.8 6.212 6.212 0 0 0 1.35-2.069c.3-.75.451-1.543.451-2.357 0-.813-.151-1.606-.45-2.357z"/>
</svg>
