<?xml version="1.0" encoding="utf-8"?>
<!-- Generator: Adobe Illustrator 17.1.0, SVG Export Plug-In . SVG Version: 6.00 Build 0)  -->
<!DOCTYPE svg PUBLIC "-//W3C//DTD SVG 1.1//EN" "http://www.w3.org/Graphics/SVG/1.1/DTD/svg11.dtd">
<svg version="1.1" id="Layer_1" xmlns="http://www.w3.org/2000/svg" xmlns:xlink="http://www.w3.org/1999/xlink" x="0px" y="0px"
	 viewBox="-3 -3 30 30" enable-background="new -3 -3 30 30" xml:space="preserve">
<path fill="#0D1E42" d="M19.3,0H4.7C2.1,0,0,2.1,0,4.7v14.6C0,21.9,2.1,24,4.7,24h14.6c2.6,0,4.7-2.1,4.7-4.7V4.7
	C24,2.1,21.9,0,19.3,0z M22.9,19.3c0,2-1.6,3.5-3.5,3.5H4.7c-2,0-3.5-1.6-3.5-3.5V4.7c0-2,1.6-3.5,3.5-3.5h14.6c2,0,3.5,1.6,3.5,3.5
	V19.3z"/>
<path fill="#0D1E42" d="M16.6,10.8l0.2-1.4H15l0.6-4H14l-0.6,4h-2.1l0.6-4h-1.6l-0.6,4H8l-0.2,1.4h1.8l-0.3,2.5H7.4l-0.2,1.4H9
	l-0.6,4H10l0.6-4h2.1l-0.6,4h1.5l0.6-4H16l0.2-1.4h-1.8l0.3-2.5H16.6z M12.9,13.2h-2.1l0.3-2.5h2.1L12.9,13.2z"/>
</svg>
