<?xml version="1.0" encoding="utf-8"?>
<!-- Generator: Adobe Illustrator 17.1.0, SVG Export Plug-In . SVG Version: 6.00 Build 0)  -->
<!DOCTYPE svg PUBLIC "-//W3C//DTD SVG 1.1//EN" "http://www.w3.org/Graphics/SVG/1.1/DTD/svg11.dtd">
<svg version="1.1" id="Layer_1" xmlns="http://www.w3.org/2000/svg" xmlns:xlink="http://www.w3.org/1999/xlink" x="0px" y="0px"
	 viewBox="0 0 26 17" enable-background="new 0 0 26 17" xml:space="preserve">
<g>
	<path d="M8.4,1C4.3,1,1,4.3,1,8.4s3.3,7.4,7.4,7.4s7.4-3.3,7.4-7.4S12.4,1,8.4,1 M8.4,16.7C3.8,16.7,0,13,0,8.4S3.8,0,8.4,0
		s8.4,3.8,8.4,8.4S13,16.7,8.4,16.7"/>
	<path fill="#727891" d="M13.5,15c1,0.5,2.1,0.8,3.2,0.8c4.1,0,7.4-3.3,7.4-7.4c0-4.1-3.3-7.4-7.4-7.4c-1.1,0-2.2,0.3-3.2,0.8
		c2.1,1.6,3.3,4,3.2,6.6C16.7,10.9,15.5,13.4,13.5,15 M16.7,16.7c-1.6,0-3.1-0.4-4.4-1.3L11.6,15l0.7-0.4c2.1-1.3,3.5-3.7,3.4-6.2
		c0-2.5-1.3-4.9-3.4-6.2l-0.7-0.4l0.7-0.4C13.6,0.4,15.1,0,16.7,0c4.6,0,8.4,3.8,8.4,8.4C25.1,13,21.3,16.7,16.7,16.7"/>
	<path fill="#727891" d="M12.8,1.3l-0.3-0.2l-0.3,0.2C9.8,2.8,8.3,5.5,8.3,8.4c0,2.9,1.5,5.6,3.9,7.1l0.3,0.2v0l0.3-0.2
		c2.4-1.5,3.9-4.2,3.9-7.1C16.7,5.5,15.2,2.8,12.8,1.3z M12.5,14.4c-2-1.4-3.2-3.6-3.2-6.1c0-2.4,1.2-4.7,3.2-6.1v0
		c2,1.4,3.2,3.6,3.2,6.1C15.7,10.8,14.5,13,12.5,14.4z"/>
</g>
</svg>
