<svg xmlns="http://www.w3.org/2000/svg" xmlns:xlink="http://www.w3.org/1999/xlink" width="16" height="16" viewBox="0 0 16 16">
    <defs>
        <path id="a" d="M8.518 11.575a.626.626 0 0 1-.197.446.62.62 0 0 1-.449.197l.001-.308-.002.308c-.383-.003-.68-.34-.598-.661l-.013-3.07-3.07-.014a.625.625 0 0 1-.63-.63.619.619 0 0 1 .63-.63l3.065.013-.013-3.065a.618.618 0 0 1 .63-.63c.353.001.628.277.63.63l.013 3.07 3.07.014a.626.626 0 0 1 .63.632.626.626 0 0 1-.197.446.62.62 0 0 1-.448.197l-3.065-.013.013 3.068zM8 1.102A6.904 6.904 0 0 1 14.898 8 6.905 6.905 0 0 1 8 14.898 6.905 6.905 0 0 1 1.102 8 6.905 6.905 0 0 1 8 1.102M8 16c4.41 0 8-3.59 8-8s-3.59-8-8-8-8 3.59-8 8 3.59 8 8 8"/>
    </defs>
    <use fill="#FFF" fill-rule="evenodd" xlink:href="#a"/>
</svg>
