<svg xmlns="http://www.w3.org/2000/svg" xmlns:xlink="http://www.w3.org/1999/xlink" width="30" height="30" viewBox="0 0 30 30">
    <defs>
        <path id="a" d="M13.7 0a.568.568 0 0 1 .572.57v1.143h3.14a.57.57 0 0 1 .57.57v19.408a.573.573 0 0 1-.57.572H.57a.572.572 0 0 1-.57-.572V2.283c0-.314.256-.569.57-.57h3.142V.57a.573.573 0 0 1 .57-.57zM3.71 2.853H1.14v18.268h15.702L16.84 2.853h-2.57v1.142c0 .151-.06.297-.166.404a.574.574 0 0 1-.404.167H4.28a.573.573 0 0 1-.57-.57H3.71V2.852zm10.562 12.739a.571.571 0 0 1 0 1.142H3.712a.572.572 0 0 1 0-1.142zm-1.178-3.71a.57.57 0 0 1 .093 1.134l-.093.007H4.89a.57.57 0 0 1-.092-1.134l.092-.008h8.205zm1.178-3.426a.572.572 0 0 1 .093 1.134l-.093.008H3.712a.571.571 0 0 1-.093-1.135l.092-.007h10.561zm-1.141-7.314H4.854v2.283h8.276V1.142z"/>
    </defs>
    <use fill="#0D1E42" fill-rule="evenodd" transform="translate(6 4)" xlink:href="#a"/>
</svg>
