<svg xmlns="http://www.w3.org/2000/svg" xmlns:xlink="http://www.w3.org/1999/xlink" width="30" height="30" viewBox="0 0 30 30">
    <defs>
        <path id="a" d="M13.154 5.882l.964.964L10.964 10l3.154 3.154-.964.964L10 10.964l-3.154 3.154-.964-.964L9.036 10 5.882 6.846l.964-.964L10 9.036l3.154-3.154zM10 1.378c4.755 0 8.622 3.866 8.622 8.622 0 4.755-3.866 8.623-8.622 8.623-4.755 0-8.622-3.868-8.622-8.623 0-4.755 3.867-8.622 8.622-8.622M10 20c5.511 0 10-4.488 10-10 0-5.511-4.489-10-10-10S0 4.489 0 10c0 5.512 4.489 10 10 10"/>
    </defs>
    <g fill="none" fill-rule="evenodd">
        <use fill="#0D1E42" transform="translate(5 5)" xlink:href="#a"/>
    </g>
</svg>
