<svg xmlns="http://www.w3.org/2000/svg" width="24" height="24" viewBox="0 0 24 24">
    <g fill="#03CFA3" fill-rule="evenodd">
        <path d="M4.174 11.78H2.822c.09-3.514 2.24-6.662 5.527-8.065l.206-.087-.536-1.34-.216.093c-3.86 1.654-6.312 5.241-6.442 9.398H0l2.087 3.612 2.087-3.612zM12.099 3.05a8.9 8.9 0 0 1 8.017 5.525l.087.209 1.34-.537-.09-.215c-1.611-3.818-5.265-6.31-9.354-6.4V.23L8.488 2.317l3.61 2.087V3.05zM21.562 8.716l-2.087 3.611h1.353c-.09 3.514-2.239 6.662-5.527 8.064l-.206.088.536 1.338.215-.09c3.818-1.61 6.31-5.265 6.4-9.354h1.235v-.335l-1.919-3.322zM11.55 21.056c-3.513-.09-6.66-2.239-8.063-5.527l-.088-.206-1.339.536.092.216c1.654 3.86 5.242 6.312 9.399 6.443v1.36l3.611-2.087-3.611-2.087v1.352z"/>
    </g>
</svg>
