<svg xmlns="http://www.w3.org/2000/svg" width="30" height="30" viewBox="0 0 30 30">
    <path fill="#0D1E42" fill-rule="evenodd" d="M21.735 4.014h-.003c-.013-.002-.025-.005-.036-.009-.01-.002-.018-.005-.025-.005H6.47C5.11 4 4 5.11 4 6.472v16.15c0 1.307 1.028 2.387 2.34 2.457.016.002.028.004.039.008.01.003.019.006.025.006h8.522V11.945l.078.079 2.453 2.453c.181.181.364.176.486.144.202-.056.379-.236.43-.439.03-.119.03-.298-.148-.468-.558-.57-1.102-1.124-1.75-1.778l-.152-.154c-.527-.534-1.054-1.067-1.582-1.607-.119-.1-.252-.15-.395-.15-.143 0-.278.053-.41.162l-3.405 3.405c-.118.12-.175.257-.166.399.009.126.072.258.174.36.19.19.498.264.757.007l2.53-2.531v12.122H6.472c-.732 0-1.328-.595-1.328-1.328V6.472c0-.732.596-1.328 1.328-1.328h15.133c.732 0 1.328.596 1.328 1.328v7.962l-.001-.003v.007c0 .315.257.571.572.571.315 0 .572-.256.572-.57V6.471c0-1.308-1.028-2.389-2.34-2.458"/>
</svg>
