<svg xmlns="http://www.w3.org/2000/svg" xmlns:xlink="http://www.w3.org/1999/xlink" width="30" height="30" viewBox="0 0 30 30">
    <defs>
        <path id="a" d="M25.524.626l.006-.022.003-.02.005-.024c0-.007 0-.013.002-.02V.516l.001-.02V.472l-.001-.02-.003-.022-.004-.022-.004-.02a5.067 5.067 0 0 1-.011-.042l-.009-.023C25.508.317 25.504.31 25.5.301l-.007-.017a.35.35 0 0 0-.02-.04h-.001l-.024-.037-.008-.01-.02-.025-.013-.014A.271.271 0 0 1 25.39.14l-.018-.015-.015-.014a.27.27 0 0 1-.02-.015L25.32.085 25.299.07l-.012-.007-.005-.002A.148.148 0 0 0 25.26.05l-.02-.01-.017-.007a.655.655 0 0 1-.025-.01l-.015-.003a.228.228 0 0 0-.042-.011l-.029-.005-.016-.002L25.07 0 25.052 0h-.026l-.019.001-.024.002c-.007 0-.013.002-.02.003-.008 0-.016.003-.024.005a.247.247 0 0 0-.045.011l-.016.005-.029.01-.009.005L.3 10.766a.499.499 0 0 0-.045.891l5.802 3.241 2.645 7.759v.004l.016.039.008.016.012.023a.194.194 0 0 0 .01.017l.014.023.01.014c.007.01.014.02.022.028l.006.007.03.033.004.003.008.006a.245.245 0 0 0 .023.02l.014.011.022.015.015.01.027.015a.15.15 0 0 0 .025.012c.006.004.014.007.022.01a.295.295 0 0 0 .018.007l.022.008.02.005.023.006.018.003a.228.228 0 0 0 .028.004l.015.002.042.002h.001l.046-.003h.013a.298.298 0 0 0 .032-.006l.015-.003.032-.008.013-.004a.312.312 0 0 0 .041-.015l.014-.006a.43.43 0 0 0 .027-.013l.017-.009.025-.016c.004-.003.009-.005.013-.009a.277.277 0 0 0 .036-.027l.008-.007.027-.026.006-.005 3.63-3.839 4.594 2.56a.49.49 0 0 0 .424.03.499.499 0 0 0 .294-.304L25.516.658c0-.004 0-.007.002-.01a.137.137 0 0 0 .006-.022zM10.596 16.891l-.007.009a.348.348 0 0 0-.022.029l-.01.015-.017.029-.01.018a.356.356 0 0 1-.013.028.162.162 0 0 1-.008.021c0 .003-.003.007-.004.01l-1.328 3.9-2.118-6.214L21.793 3.582 10.596 16.891zm10.79-14.252L6.427 13.962 1.62 11.277l19.767-8.638zM10.389 20.493l.871-2.556 1.012.565-1.883 1.991zm7.341-.09l-5.98-3.333L23.71 2.857 17.73 20.402z"/>
    </defs>
    <use fill="#0D1E42" fill-rule="evenodd" transform="translate(2 4)" xlink:href="#a"/>
</svg>
