<svg xmlns="http://www.w3.org/2000/svg" xmlns:xlink="http://www.w3.org/1999/xlink" width="16" height="18" viewBox="0 0 16 18">
    <defs>
        <path id="a" d="M6.569 0C4.384 0 2.652.652.819 2.232.143 2.86.067 3.962.745 4.665c.678.602 1.707.526 2.31-.076C4.083 3.511 5.137 3.21 6.569 3.21c3.865 0 5.723 2.734 5.723 5.794 0 3.11-1.832 5.97-5.723 5.97-1.432 0-2.762-.579-3.917-1.607-.778-.602-1.858-.3-2.31.301-.401.552-.602 1.48.277 2.358 1.757 1.63 3.865 1.956 5.95 1.956 6.075 0 8.81-4.138 8.81-8.978S12.343 0 6.57 0"/>
    </defs>
    <use fill="#5303A8" fill-rule="evenodd" xlink:href="#a"/>
</svg>
