<svg xmlns="http://www.w3.org/2000/svg" width="24" height="24" viewBox="0 0 24 24">
    <g fill="none" fill-rule="evenodd">
        <g fill="#52576A">
            <g>
                <g>
                    <path d="M23.21 14.656c0 .32-.26.58-.58.58h-.06V8.645c0-.231-.186-.419-.417-.419-.231 0-.418.188-.418.419v12.248c0 .34-.276.615-.615.615-.339 0-.615-.276-.615-.615v-6.025c0-.565-.459-1.024-1.024-1.024s-1.024.46-1.024 1.024v5.982c0 .352-.267.648-.596.657-.166.008-.326-.056-.447-.173-.12-.116-.186-.273-.186-.441V8.644c0-.231-.187-.419-.418-.419-.23 0-.418.188-.418.419v6.593h-.06c-.32 0-.58-.26-.58-.581V7.905c0-.875.712-1.587 1.587-1.587h4.284c.875 0 1.587.712 1.587 1.587v6.751zm-8.356.743c-.058.087-.146.146-.248.167-.209.042-.392-.083-.436-.299-.007-.034-.02-.065-.034-.095l-.867-4.31c-.045-.227-.265-.374-.492-.328-.226.046-.372.266-.327.493l1.323 6.578H8.337l1.323-6.578c.046-.227-.1-.447-.327-.493-.227-.046-.447.102-.492.328l-.867 4.31c-.014.03-.027.061-.034.095-.044.216-.227.342-.436.3-.102-.022-.19-.081-.248-.168-.056-.086-.075-.187-.054-.29l.918-4.579c.222-1.067 1.18-1.843 2.278-1.843h1.314c1.098 0 2.056.776 2.277 1.84l.92 4.585c.02.1 0 .201-.055.287zm-2.142 5.727c0 .21-.173.38-.385.38-.213 0-.385-.17-.385-.38v-2.684h.77v2.684zm-2.543 0c0 .21-.174.38-.386.38-.213 0-.385-.17-.385-.38v-2.684h.77v2.684zM9.385 5.55c0-.938.76-1.698 1.697-1.698s1.698.76 1.698 1.698c0 .937-.76 1.697-1.698 1.697-.937 0-1.697-.76-1.697-1.697zm-4.14 15.337c0 .338-.275.613-.613.613h-.019c-.336 0-.61-.273-.612-.61V17.937c0-.228-.182-.411-.409-.417-.226.006-.409.189-.409.417V20.89c-.001.337-.275.61-.612.61h-.02c-.337 0-.612-.275-.612-.613v-3.216c0-.23-.187-.418-.418-.418h-.364c-.188 0-.341-.153-.341-.342v-4.082c0-.612.497-1.11 1.109-1.11h2.572l-.001.007h.744c.612 0 1.11.498 1.11 1.11v4.082c0 .139-.084.257-.204.311-.038.014-.077.024-.12.024h-.363c-.06 0-.117.015-.17.038-.155.06-.267.209-.267.387v1.737l.019.004v1.468zM3.563 7.68c.762 0 1.38.617 1.38 1.38 0 .761-.618 1.379-1.38 1.379-.761 0-1.379-.618-1.379-1.38 0-.762.618-1.38 1.379-1.38zM17.538 2.9c0-1.171.95-2.121 2.122-2.121s2.122.95 2.122 2.122-.95 2.122-2.122 2.122c-1.171 0-2.122-.95-2.122-2.122zm4.085 2.582h-.646c.939-.48 1.584-1.456 1.584-2.581 0-1.6-1.301-2.901-2.9-2.901-1.6 0-2.901 1.302-2.901 2.9 0 1.126.645 2.102 1.584 2.582H17.34c-1.336 0-2.422 1.087-2.422 2.423v2.997l-.109-.541c-.284-1.373-1.46-2.39-2.847-2.499.932-.355 1.597-1.257 1.597-2.312 0-1.366-1.11-2.477-2.476-2.477-1.365 0-2.476 1.11-2.476 2.477 0 1.053.663 1.953 1.592 2.31-1.408.09-2.609 1.112-2.897 2.503l-.315 1.573-.001-.002-.006.028c-.32-.639-.978-1.079-1.739-1.079h-.529c.606-.382 1.01-1.056 1.01-1.824 0-1.19-.968-2.158-2.158-2.158S1.405 7.87 1.405 9.06c0 .768.404 1.442 1.01 1.824h-.471c-.761 0-1.42.44-1.74 1.079L.2 11.934c-.1.193-.168.406-.199.63v2.741l.046 1.918c.11.394.416.705.81.817.028.008.055.014.082.02.06.012.12.024.184.026v2.801c0 .796.645 1.443 1.44 1.448.399-.003.76-.167 1.02-.431l.01.008.01-.008c.26.264.621.428 1.02.431.795-.005 1.44-.652 1.44-1.448v-2.795c.624-.028 1.123-.543 1.123-1.174v-.575c.05.016.1.031.152.042.132.027.264.03.39.015l-.31 1.54c-.025.124.007.251.087.348.079.097.198.154.323.154h.735v2.684c0 .671.548 1.217 1.221 1.217.674 0 1.221-.546 1.221-1.217v-2.684h.101v2.684c0 .671.548 1.217 1.222 1.217.673 0 1.221-.546 1.221-1.217v-2.684h.735c.125 0 .244-.057.323-.154.08-.097.111-.224.087-.347l-.31-1.54c.047.006.094.01.142.01.082 0 .165-.009.248-.026.322-.066.599-.253.779-.526l.01-.017c.221.145.486.23.77.23h.06v4.82c0 .396.156.766.44 1.041.284.276.66.421 1.055.409.775-.023 1.406-.693 1.406-1.493v-5.982c0-.104.084-.188.188-.188s.189.084.189.188v6.025c0 .8.65 1.45 1.45 1.45.8 0 1.45-.65 1.45-1.45v-4.82h.06c.78 0 1.416-.635 1.416-1.416V7.905c0-1.336-1.087-2.423-2.423-2.423z" transform="translate(-532 -2089) translate(532 2089) translate(0 1)"/>
                </g>
            </g>
        </g>
    </g>
</svg>
