<svg xmlns="http://www.w3.org/2000/svg" xmlns:xlink="http://www.w3.org/1999/xlink" width="22" height="22" viewBox="0 0 22 22">
    <defs>
        <path id="a" d="M9.167 14.837c.147.123.318.171.489.171a.759.759 0 0 0 .537-.22l6.43-6.502a.767.767 0 0 0 0-1.075.767.767 0 0 0-1.076 0l-5.94 6.014-2.542-2.151a.77.77 0 0 0-1.075.097.77.77 0 0 0 .097 1.075l3.08 2.591zM11 1.515c5.23 0 9.485 4.253 9.485 9.485 0 5.23-4.253 9.485-9.485 9.485-5.23 0-9.485-4.254-9.485-9.485 0-5.23 4.254-9.485 9.485-9.485M11 22c6.062 0 11-4.937 11-11S17.062 0 11 0 0 4.937 0 11s4.938 11 11 11"/>
    </defs>
    <use fill="#03CFA3" fill-rule="evenodd" xlink:href="#a"/>
</svg>
