<svg xmlns="http://www.w3.org/2000/svg" xmlns:xlink="http://www.w3.org/1999/xlink" width="30" height="30" viewBox="0 0 30 30">
    <defs>
        <path id="a" d="M3.475 13.312A2.288 2.288 0 0 1 1.162 11a2.288 2.288 0 0 1 2.313-2.313A2.288 2.288 0 0 1 5.788 11a2.288 2.288 0 0 1-2.313 2.312M15.63 1.162a2.288 2.288 0 0 1 2.313 2.313 2.288 2.288 0 0 1-2.313 2.312 2.288 2.288 0 0 1-2.313-2.312 2.288 2.288 0 0 1 2.313-2.312m0 15.049a2.288 2.288 0 0 1 2.313 2.311 2.288 2.288 0 0 1-2.313 2.313 2.288 2.288 0 0 1-2.313-2.313 2.287 2.287 0 0 1 2.313-2.311m-3.475 2.312A3.48 3.48 0 0 0 15.63 22a3.48 3.48 0 0 0 3.475-3.476 3.48 3.48 0 0 0-3.475-3.475c-.925 0-1.8.368-2.464 1.037l-.154.154-6.47-3.597.107-.24a3.424 3.424 0 0 0 .001-2.805l-.107-.24 6.461-3.6.153.156a3.45 3.45 0 0 0 2.473 1.037 3.48 3.48 0 0 0 3.475-3.475A3.48 3.48 0 0 0 15.63 0a3.479 3.479 0 0 0-3.308 4.545l.072.224-6.589 3.664-.15-.123a3.435 3.435 0 0 0-2.18-.786A3.48 3.48 0 0 0 0 11a3.479 3.479 0 0 0 3.475 3.475c.8 0 1.553-.269 2.18-.776l.15-.123 6.599 3.664-.073.225a3.403 3.403 0 0 0-.176 1.06"/>
    </defs>
    <use fill="#0D1E42" fill-rule="evenodd" transform="translate(5 4)" xlink:href="#a"/>
</svg>
