<?xml version="1.0" encoding="utf-8"?>
<!-- Generator: Adobe Illustrator 17.1.0, SVG Export Plug-In . SVG Version: 6.00 Build 0)  -->
<!DOCTYPE svg PUBLIC "-//W3C//DTD SVG 1.1//EN" "http://www.w3.org/Graphics/SVG/1.1/DTD/svg11.dtd">
<svg version="1.1" id="Layer_1" xmlns="http://www.w3.org/2000/svg" xmlns:xlink="http://www.w3.org/1999/xlink" x="0px" y="0px"
	 viewBox="-3 -3 30 30" enable-background="new -3 -3 30 30" xml:space="preserve">
<path fill="#0D1E42" d="M19.3,0H4.7C2.1,0,0,2.1,0,4.7v14.6C0,21.9,2.1,24,4.7,24h14.6c2.6,0,4.7-2.1,4.7-4.7V4.7
	C24,2.1,21.9,0,19.3,0z M22.9,19.3c0,2-1.6,3.5-3.5,3.5H4.7c-2,0-3.5-1.6-3.5-3.5V4.7c0-2,1.6-3.5,3.5-3.5h14.6v0
	c2,0,3.5,1.6,3.5,3.6V19.3z"/>
<path fill="#0D1E42" d="M16.9,17.2L12.7,4.9v0h-1.2L7.3,17.2l-1.7,0.2v0.8h4.5v-0.8l-1.9-0.3l1.1-3.3h4.6l1.1,3.3l-2,0.2v0.8h5.3
	v-0.8L16.9,17.2z M9.6,13l2-5.9l2,5.9H9.6z"/>
</svg>
