<svg xmlns="http://www.w3.org/2000/svg" width="17" height="21" viewBox="0 0 17 21">
    <path fill="#727891" fill-rule="evenodd" d="M10.382 10.034L8.57 8.2a.534.534 0 0 0-.74 0l-1.813 1.834a.53.53 0 0 0 0 .742.533.533 0 0 0 .74 0l.92-.932v5.797c0 .261.195.485.46.521l.063.005a.525.525 0 0 0 .52-.527V9.85l.922.926a.533.533 0 0 0 .74 0 .53.53 0 0 0 0-.742m4.983 8.307a.846.846 0 0 1-.844.846H1.879a.847.847 0 0 1-.845-.846V1.879c0-.466.379-.845.845-.845h8.741v4.357c0 .285.232.517.517.517h4.228v12.433zM11.654 1.79l3.004 3.084h-3.004V1.79zm4.707 3.409a.434.434 0 0 0-.064-.106L11.504.154a.468.468 0 0 0-.305-.143L1.879 0A1.881 1.881 0 0 0 0 1.879v16.462a1.88 1.88 0 0 0 1.879 1.878h12.642a1.88 1.88 0 0 0 1.878-1.878V5.397l-.008-.058c-.004-.037-.009-.089-.03-.14z"/>
</svg>
