<svg xmlns="http://www.w3.org/2000/svg" xmlns:xlink="http://www.w3.org/1999/xlink" width="30" height="30" viewBox="0 0 30 30">
    <defs>
        <path id="a" d="M14.776 18.184a.521.521 0 0 1 .002.738v.001a.525.525 0 0 1-.74 0l-2.664-2.414a4.958 4.958 0 0 1-8.077-3.857 4.96 4.96 0 1 1 8.814 3.119l2.665 2.413zM8.213 16.65a3.914 3.914 0 1 0 0-7.83 3.916 3.916 0 0 0 0 7.83zm4.34-10.157h4.766v13.663c0 .512-.427.93-.952.93H2.117a.942.942 0 0 1-.95-.93V2.065a.94.94 0 0 1 .95-.928h9.854v4.788c0 .313.26.568.582.568zm.582-1.136v-3.39l3.386 3.39h-3.386zm5.34.51a.457.457 0 0 0-.107-.27L12.968.171a.529.529 0 0 0-.344-.159L2.118 0C.95 0 0 .926 0 2.065v18.09c0 1.14.95 2.064 2.118 2.064h14.249c1.166 0 2.116-.924 2.116-2.063V5.93l-.008-.064z"/>
    </defs>
    <g fill="none" fill-rule="evenodd">
        <g transform="translate(5 4)">
            <use fill="#0D1E42" xlink:href="#a"/>
        </g>
    </g>
</svg>
