<svg xmlns="http://www.w3.org/2000/svg" xmlns:xlink="http://www.w3.org/1999/xlink" width="26" height="29" viewBox="0 0 26 29">
    <defs>
        <path id="a" d="M19.97 7.58c0 .408-.168.791-.474 1.08a1.65 1.65 0 0 1-1.142.447c-.431 0-.837-.159-1.142-.447a1.476 1.476 0 0 1-.473-1.08c0-.421.181-.803.473-1.08a1.657 1.657 0 0 1 1.142-.447c.432 0 .838.159 1.143.447.305.289.473.672.473 1.08m5.845 9.612v3.946c0 2.575 1.463 5.611 3.819 7.923l.002.027.004.003c-.005.007-.027.01-.04.01H7.18c-.042-.008-.059-.033-.062-.04 2.353-2.309 3.78-5.268 3.819-7.923v-3.946c0-3.877 3.337-7.031 7.439-7.03 4.102 0 7.439 3.153 7.439 7.03m-7.479 15.632c-1.683 0-3.082-1.156-3.366-2.672h6.732c-.283 1.515-1.683 2.671-3.366 2.672m1.948-27.068A2.794 2.794 0 0 0 18.354 5c-1.505 0-2.73 1.157-2.73 2.58 0 .679.282 1.296.737 1.757-3.747.859-6.538 4.053-6.538 7.855v3.939c-.035 2.387-1.346 5.078-3.5 7.193a.99.99 0 0 0-.253 1.096c.16.41.569.698 1.038.732h6.737c.293 2.099 2.193 3.725 4.491 3.725 1.25 0 2.384-.481 3.205-1.258a4.193 4.193 0 0 0 1.287-2.466H29.6c.323 0 .614-.114.825-.314.103-.098.188-.216.247-.35a1.02 1.02 0 0 0-.237-1.159c-2.163-2.122-3.507-4.879-3.507-7.192v-3.946c0-3.813-2.809-7.016-6.573-7.863a2.485 2.485 0 0 0 .728-1.749c0-.69-.284-1.337-.8-1.824"/>
    </defs>
    <use fill="#FFF" fill-rule="evenodd" transform="rotate(30 28.576 12.706)" xlink:href="#a"/>
</svg>
