<svg xmlns="http://www.w3.org/2000/svg" xmlns:xlink="http://www.w3.org/1999/xlink" width="26" height="29" viewBox="0 0 26 29">
    <defs>
        <path id="a" d="M19.949 7.58c0 .408-.168.791-.473 1.08-.305.288-.71.447-1.14.447a1.65 1.65 0 0 1-1.142-.447 1.477 1.477 0 0 1-.473-1.08c0-.421.181-.803.474-1.08a1.654 1.654 0 0 1 1.14-.447c.431 0 .837.159 1.141.447.305.289.473.672.473 1.08m5.839 9.612v3.946c0 2.575 1.462 5.611 3.815 7.923l.002.027.004.003c-.005.007-.027.01-.039.01H7.173c-.043-.008-.06-.033-.063-.04 2.35-2.309 3.777-5.268 3.815-7.923v-3.946c0-3.877 3.334-7.031 7.432-7.03 4.097 0 7.43 3.153 7.43 7.03m-7.47 15.632c-1.681 0-3.08-1.156-3.362-2.672h6.724c-.282 1.515-1.68 2.671-3.362 2.672m1.946-27.068A2.79 2.79 0 0 0 18.335 5c-1.503 0-2.726 1.157-2.727 2.58 0 .679.281 1.296.736 1.757-3.743.859-6.532 4.053-6.532 7.855v3.939c-.034 2.387-1.344 5.078-3.496 7.193a.99.99 0 0 0-.252 1.096c.16.41.568.698 1.037.732h6.73c.292 2.099 2.19 3.725 4.486 3.725a4.65 4.65 0 0 0 3.202-1.258 4.195 4.195 0 0 0 1.285-2.466h6.766c.323 0 .614-.114.824-.314.104-.098.188-.216.247-.35a1.02 1.02 0 0 0-.237-1.159c-2.16-2.122-3.503-4.879-3.503-7.192v-3.946c0-3.813-2.806-7.016-6.566-7.863a2.487 2.487 0 0 0 .727-1.749c0-.69-.284-1.337-.799-1.824"/>
    </defs>
    <g fill="none" fill-rule="evenodd" transform="translate(-1.856 -6.178)">
        <use fill="#FFF" transform="rotate(30 18.36 19.438)" xlink:href="#a"/>
        <ellipse cx="13.486" cy="12.5" fill="#EB3232" rx="4.495" ry="4.5" class="dot"/>
    </g>
</svg>
